<?xml version="1.0" encoding="utf-8"?>
<!-- Generator: Adobe Illustrator 19.0.0, SVG Export Plug-In . SVG Version: 6.00 Build 0)  -->
<svg version="1.1" id="Layer_1" xmlns="http://www.w3.org/2000/svg" xmlns:xlink="http://www.w3.org/1999/xlink" x="0px" y="0px"
	 viewBox="0 0 500 500" style="enable-background:new 0 0 500 500;" xml:space="preserve">
<style type="text/css">
	.st0{fill:#243C80;}
	.st1{fill:#FFFFFF;}
</style>
<g id="XMLID_15_">
	<path id="XMLID_17_" class="st0" d="M281.7,79v31.8c42.5,0.2,89-0.4,131.5,0.2c7.1-0.1,11.3,3,11.4,10.8
		c0.7,78.3-0.2,161.1,0.4,239.5c-0.2,4.9,0.1,14-0.7,19c-1,6.4-3.8,7.6-10.2,8.4c-3.6,0.5-9.6,0.4-13.1,0.6
		c-34.9-0.2-69.8-0.1-104.7-0.1l-14.7,0v14.7V421L75,389.2c0-92.8,0-185.5,0-278.3L281.7,79z"/>
	<path id="XMLID_21_" class="st1" d="M281.7,122.8c43.7,0,87.5,0,131.2,0c0,84.8,0,169.7,0,254.5c-43.7,0-87.5,0-131.2,0
		c0-10.6,0-21.2,0-31.8c34.5,0,68.9,0,103.4,0c0-5.3,0-10.6,0-15.9c-34.5,0-68.9,0-103.4,0c0-6.6,0-13.2,0-19.9
		c34.5,0,68.9,0,103.4,0c0-5.3,0-10.6,0-15.9c-34.5,0-68.9,0-103.4,0c0-6.6,0-13.2,0-19.9c34.5,0,68.9,0,103.4,0
		c0-5.3,0-10.6,0-15.9c-34.5,0-68.9,0-103.4,0c0-6.6,0-13.2,0-19.9c34.5,0,68.9,0,103.4,0c0-5.3,0-10.6,0-15.9
		c-34.5,0-68.9,0-103.4,0c0-6.6,0-13.2,0-19.9c34.5,0,68.9,0,103.4,0c0-5.3,0-10.6,0-15.9c-34.5,0-68.9,0-103.4,0
		c0-6.6,0-13.2,0-19.9c34.5,0,68.9,0,103.4,0c0-5.3,0-10.6,0-15.9c-34.5,0-68.9,0-103.4,0C281.7,141.3,281.7,132,281.7,122.8z"/>
	<path id="XMLID_22_" class="st1" d="M157.2,193c7.6-0.4,15.1-0.8,22.7-1.2c5.3,26.8,10.7,53.6,16.4,80.4
		c4.5-27.6,9.5-55.1,14.3-82.7c8-0.3,15.9-0.7,23.8-1.2c-9,38.5-16.9,77.4-26.7,115.7c-6.6,3.5-16.6-0.2-24.5,0.4
		c-5.3-26.3-11.5-52.5-16.2-78.9c-4.7,25.7-10.7,51.1-16,76.7c-7.6-0.4-15.3-0.9-23-1.4c-6.6-35-14.4-69.7-20.5-104.8
		c6.8-0.3,13.6-0.6,20.4-0.8c4.1,25.3,8.7,50.5,12.3,75.9C145.9,245,151.6,219,157.2,193z"/>
</g>
</svg>
